<?xml version="1.0" standalone="no"?>
<!DOCTYPE svg PUBLIC "-//W3C//DTD SVG 20010904//EN"
 "http://www.w3.org/TR/2001/REC-SVG-20010904/DTD/svg10.dtd">
<svg version="1.0" xmlns="http://www.w3.org/2000/svg"
 width="1024.000000pt" height="1024.000000pt" viewBox="0 0 1024.000000 1024.000000"
 preserveAspectRatio="xMidYMid meet">

<g transform="translate(0.000000,1024.000000) scale(0.100000,-0.100000)"
fill="#000000" stroke="none">
<path d="M2747 7999 c-113 -27 -231 -119 -289 -226 -61 -112 -58 -13 -58
-1813 0 -1755 -2 -1689 48 -1787 31 -60 123 -155 181 -186 108 -60 -16 -57
2432 -57 1487 0 2264 3 2300 10 144 27 251 110 320 247 l44 88 3 1664 c2 1822
5 1727 -55 1831 -47 80 -130 157 -212 198 l-75 37 -2300 2 c-1335 0 -2317 -3
-2339 -8z m2383 -89 c45 -45 13 -123 -50 -123 -61 0 -91 68 -54 121 20 29 76
30 104 2z m2171 -211 c55 -26 107 -86 124 -144 13 -44 15 -253 13 -1605 l-3
-1555 -22 -41 c-28 -53 -83 -100 -130 -113 -59 -17 -4382 -15 -4437 1 -54 16
-128 90 -144 144 -9 32 -12 400 -12 1596 l0 1554 28 55 c33 65 88 107 158 118
27 5 1026 8 2219 7 1983 -1 2173 -2 2206 -17z"/>
<path d="M3655 7221 c-52 -23 -102 -81 -111 -128 -8 -41 6 -228 62 -843 49
-540 69 -714 77 -670 7 37 47 486 87 988 5 68 15 133 21 145 24 47 62 76 113
87 36 8 387 10 1174 8 992 -3 1122 -1 1122 12 -1 30 -38 96 -69 123 -17 14
-48 31 -69 37 -24 6 -276 10 -703 10 -521 0 -669 3 -676 13 -6 6 -22 44 -37
82 -34 92 -50 113 -100 136 -38 17 -72 19 -446 19 -370 0 -408 -2 -445 -19z"/>
<path d="M4076 6669 c-87 -21 -130 -72 -140 -169 -4 -30 -15 -129 -26 -220
-11 -91 -35 -302 -55 -470 -19 -168 -50 -441 -70 -608 -34 -281 -35 -304 -20
-335 34 -72 -62 -67 1270 -67 1312 0 1230 -4 1275 60 22 31 30 85 150 985 21
160 51 380 66 490 16 119 24 212 20 229 -10 41 -65 92 -111 105 -50 14 -2300
14 -2359 0z"/>
<path d="M2060 4067 c-19 -7 -43 -18 -53 -23 -32 -18 -639 -617 -664 -656 -31
-46 -43 -154 -23 -213 16 -48 72 -111 124 -137 54 -28 146 -28 206 -1 34 15
129 102 363 332 174 172 326 328 337 347 26 42 36 125 21 181 -36 132 -187
214 -311 170z m157 -128 c76 -72 68 -161 -24 -242 -19 -16 -21 -16 -61 22 -22
22 -55 42 -72 46 -66 15 -89 1 -223 -130 l-128 -126 -19 23 -19 23 177 178
c224 225 243 240 300 234 27 -3 53 -14 69 -28z m-152 -309 c18 -20 15 -24
-201 -243 -120 -122 -232 -230 -247 -241 -56 -37 -152 -15 -182 44 -8 16 -15
50 -15 76 0 45 3 50 82 131 46 46 83 80 84 76 2 -4 5 -25 9 -47 8 -50 44 -86
87 -86 29 0 49 16 184 155 83 85 158 155 166 155 8 0 23 -9 33 -20z"/>
<path d="M4620 3813 c-25 -4 -26 -7 -53 -201 -15 -108 -27 -205 -27 -214 0
-17 32 -18 535 -18 l535 0 -5 23 c-3 12 -18 107 -34 211 -19 117 -35 192 -43
197 -13 8 -857 10 -908 2z"/>
<path d="M7979 3513 c-88 -68 -199 -162 -216 -183 -53 -64 51 -424 185 -642
l35 -58 -45 -42 c-60 -56 -80 -99 -86 -178 -3 -53 0 -76 17 -116 28 -66 343
-459 396 -495 112 -76 279 -77 397 -3 85 54 147 190 135 294 -10 80 -37 127
-168 291 -194 242 -240 280 -354 299 -48 8 -158 0 -196 -15 -23 -9 -141 209
-191 355 -27 76 -58 209 -58 245 0 8 60 61 133 119 165 130 164 129 143 161
-9 14 -25 25 -35 25 -11 0 -52 -26 -92 -57z"/>
<path d="M4043 3260 c-53 -23 -83 -70 -83 -127 0 -57 16 -89 55 -108 29 -13
153 -15 1049 -15 1128 0 1070 -3 1103 65 31 66 -10 160 -84 191 -27 12 -205
14 -1015 14 -948 0 -985 -1 -1025 -20z"/>
<path d="M2395 2702 c-100 -35 -135 -76 -315 -367 -287 -464 -275 -442 -275
-504 0 -69 24 -114 84 -156 l43 -30 2746 0 2747 0 43 23 c63 34 97 92 97 167
0 59 -3 65 -185 394 -209 376 -252 435 -346 471 -55 20 -61 20 -2322 20 -2123
-1 -2270 -2 -2317 -18z m173 -159 c3 -22 6 -23 127 -23 120 0 123 1 139 25 24
36 86 32 86 -6 0 -18 9 -19 130 -19 115 0 131 2 137 18 9 23 23 32 55 32 21 0
29 -6 34 -25 l6 -25 133 0 c124 0 133 1 138 20 6 25 29 34 62 26 16 -4 25 -13
25 -26 0 -19 7 -20 138 -20 138 0 139 0 150 25 9 19 19 25 42 25 23 0 33 -6
40 -25 9 -25 10 -25 145 -25 120 0 136 2 142 18 9 23 23 32 55 32 21 0 29 -6
34 -25 l6 -25 132 0 c133 0 133 0 144 26 10 21 18 25 45 22 24 -2 33 -8 35
-25 3 -23 6 -23 143 -23 l139 0 10 25 c7 19 17 25 40 25 23 0 33 -6 42 -25 11
-25 12 -25 144 -25 130 0 133 0 136 23 2 18 9 22 38 22 27 0 37 -5 45 -22 9
-22 14 -23 143 -23 l132 0 10 26 c8 21 15 25 42 22 23 -2 36 -10 43 -25 9 -22
14 -23 147 -23 134 0 137 0 140 23 5 35 61 37 84 3 16 -26 18 -26 143 -26 121
0 127 1 136 23 15 33 59 35 81 3 16 -26 18 -26 145 -26 123 0 129 1 129 20 0
11 7 23 16 27 42 16 61 -12 204 -297 78 -155 140 -289 138 -298 -2 -13 -14
-17 -43 -17 l-40 0 -46 89 c-26 49 -55 95 -65 103 -27 20 -264 19 -264 -1 0
-8 14 -49 31 -91 34 -85 30 -105 -21 -105 -37 0 -60 30 -94 123 -23 63 -32 76
-54 82 -41 10 -262 2 -262 -10 0 -5 12 -45 26 -88 30 -89 24 -107 -31 -107
-37 0 -46 14 -85 133 -17 53 -26 68 -46 73 -31 8 -260 1 -269 -8 -4 -4 1 -43
10 -87 20 -91 14 -111 -36 -111 -35 0 -47 21 -68 120 l-16 75 -90 8 c-50 4
-118 5 -153 1 -62 -6 -63 -6 -58 -32 3 -15 8 -53 12 -85 7 -66 -4 -87 -47 -87
-35 0 -47 20 -54 96 -11 109 -4 101 -100 109 -47 4 -114 4 -150 0 l-65 -7 0
-93 c0 -99 -3 -105 -54 -105 -32 0 -46 37 -46 125 l0 75 -149 0 -148 0 -5 -85
c-6 -95 -17 -115 -59 -115 -40 0 -49 28 -42 123 l6 75 -79 4 c-44 2 -111 2
-151 0 l-71 -3 -7 -77 c-8 -93 -24 -122 -65 -122 -43 0 -50 22 -38 114 5 42 8
79 6 81 -10 11 -138 17 -213 10 l-83 -7 -15 -85 c-18 -96 -28 -113 -67 -113
-48 0 -55 20 -36 112 9 45 14 83 12 86 -3 2 -68 4 -146 5 -109 0 -144 -3 -150
-13 -5 -8 -16 -43 -25 -79 -21 -87 -38 -111 -75 -111 -48 0 -53 25 -26 116
l23 79 -56 8 c-31 4 -94 6 -141 5 l-85 -3 -50 -100 c-46 -93 -52 -100 -82
-103 -53 -5 -57 21 -19 115 l33 80 -131 7 c-73 4 -139 4 -148 1 -9 -4 -30 -39
-48 -78 -45 -101 -66 -127 -99 -127 -55 0 -58 21 -13 115 25 52 36 85 29 86
-7 1 -28 3 -47 5 -19 1 -77 1 -128 -2 l-93 -6 -44 -76 c-60 -104 -79 -124
-118 -120 -54 5 -46 33 59 205 53 87 119 196 147 243 90 152 106 172 135 168
19 -2 28 -10 30 -25z"/>
<path d="M2537 2430 c-10 -6 -31 -35 -48 -63 -17 -29 -40 -67 -51 -84 l-20
-33 134 0 133 0 41 88 c23 48 41 88 39 90 -9 10 -212 11 -228 2z"/>
<path d="M2889 2428 c-14 -11 -99 -161 -99 -174 0 -3 63 -3 141 -2 l141 3 33
85 c19 46 32 86 29 89 -2 3 -55 7 -117 9 -84 3 -116 0 -128 -10z"/>
<path d="M3280 2433 c-34 -4 -36 -7 -68 -86 -17 -46 -32 -86 -32 -90 0 -4 64
-7 143 -7 l142 0 26 89 25 89 -59 6 c-60 6 -113 6 -177 -1z"/>
<path d="M3628 2428 c-13 -10 -58 -143 -58 -171 0 -4 65 -7 145 -7 142 0 145
0 150 23 28 126 33 153 28 157 -2 3 -59 6 -126 8 -90 3 -126 0 -139 -10z"/>
<path d="M4009 2428 c-10 -8 -22 -46 -31 -96 l-15 -83 146 3 145 3 12 85 c7
47 10 87 8 89 -2 2 -59 6 -126 8 -93 4 -127 2 -139 -9z"/>
<path d="M4393 2430 c-15 -6 -23 -18 -23 -33 0 -13 -3 -52 -6 -86 l-7 -61 141
0 c161 0 152 -6 152 104 l0 73 -67 6 c-91 9 -163 8 -190 -3z"/>
<path d="M4768 2433 c-14 -4 -17 -19 -20 -89 -2 -47 -1 -88 1 -90 2 -2 69 -4
148 -4 l143 0 0 89 0 89 -35 6 c-36 7 -205 6 -237 -1z"/>
<path d="M5156 2433 l-29 -5 7 -60 c3 -34 6 -74 6 -89 l0 -29 146 0 146 0 -5
33 c-3 17 -9 57 -13 89 -5 46 -10 57 -28 62 -23 6 -185 5 -230 -1z"/>
<path d="M5538 2433 c-32 -5 -32 -6 -17 -108 l11 -75 144 0 c166 0 155 -9 129
109 l-16 68 -52 7 c-55 6 -153 6 -199 -1z"/>
<path d="M5922 2433 c-35 -5 -34 3 -12 -93 4 -19 11 -47 14 -62 l6 -28 145 0
c80 0 145 2 145 4 0 3 -11 41 -25 85 -16 50 -33 85 -45 91 -18 10 -159 11
-228 3z"/>
<path d="M6287 2433 c-11 -3 -16 -10 -13 -20 3 -8 16 -48 27 -89 l22 -74 143
0 144 0 -10 23 c-4 12 -20 51 -34 86 -14 36 -32 68 -39 73 -13 8 -209 9 -240
1z"/>
<path d="M6668 2433 c-24 -6 -23 -8 14 -102 l31 -81 134 0 c73 0 133 2 133 5
0 15 -73 148 -90 165 -17 17 -33 20 -112 19 -51 -1 -101 -3 -110 -6z"/>
</g>
</svg>
