<?xml version="1.0" standalone="no"?>
<!DOCTYPE svg PUBLIC "-//W3C//DTD SVG 20010904//EN"
 "http://www.w3.org/TR/2001/REC-SVG-20010904/DTD/svg10.dtd">
<svg version="1.0" xmlns="http://www.w3.org/2000/svg"
 width="512.000000pt" height="512.000000pt" viewBox="0 0 512.000000 512.000000"
 preserveAspectRatio="xMidYMid meet">

<g transform="translate(0.000000,512.000000) scale(0.100000,-0.100000)"
fill="#000000" stroke="none">
<path d="M1090 5104 c-38 -16 -85 -57 -103 -89 -8 -13 -14 -106 -17 -265 l-5
-245 -290 -5 c-286 -5 -291 -5 -345 -31 -70 -33 -136 -99 -169 -169 l-26 -55
0 -1510 0 -1510 28 -53 c35 -67 92 -124 159 -159 l53 -28 833 -3 832 -2 0
-133 c-1 -194 -17 -221 -199 -337 l-95 -60 -77 0 c-88 0 -122 -10 -162 -48
-48 -45 -57 -73 -57 -178 0 -86 3 -102 25 -140 16 -28 39 -49 68 -63 42 -20
57 -21 454 -21 377 0 413 1 432 18 31 25 37 72 13 102 l-20 25 -409 5 -408 5
-3 64 c-2 45 1 67 10 72 17 11 1879 11 1896 0 9 -5 12 -27 10 -72 l-3 -64
-408 -5 -409 -5 -20 -25 c-24 -30 -18 -77 13 -102 19 -17 55 -18 432 -18 397
0 412 1 454 21 69 33 93 84 93 197 0 101 -9 134 -48 176 -40 42 -82 56 -171
56 l-79 0 -105 69 c-175 116 -186 135 -187 328 l0 133 828 2 827 3 56 26 c69
33 129 91 166 161 l28 53 3 652 3 651 -27 21 c-35 28 -69 27 -99 -4 l-25 -24
0 -616 c0 -533 -2 -621 -15 -653 -21 -49 -52 -81 -100 -103 -38 -18 -120 -19
-2165 -19 -2045 0 -2127 1 -2165 19 -48 22 -79 54 -100 103 -13 33 -15 201
-15 1490 0 1391 1 1455 19 1493 22 48 54 79 103 100 31 12 86 15 303 15 l265
0 0 -70 0 -70 -222 0 c-252 0 -279 -6 -310 -70 -17 -33 -18 -121 -18 -1405 0
-1356 0 -1370 20 -1403 41 -67 -115 -62 2120 -62 2235 0 2079 -5 2120 62 20
33 20 47 20 1403 0 1284 -1 1372 -18 1405 -31 64 -58 70 -309 70 l-223 0 0 70
0 70 268 0 c238 0 271 -2 307 -19 48 -22 79 -54 100 -103 13 -33 15 -126 15
-712 0 -483 3 -682 11 -700 23 -49 104 -53 129 -7 7 14 10 235 8 728 l-3 708
-26 55 c-34 72 -97 136 -167 168 -57 27 -59 27 -347 32 l-290 5 -5 245 c-5
258 -6 264 -57 312 -65 62 35 58 -1535 58 -1258 -1 -1437 -3 -1468 -16z m2891
-144 c19 -11 19 -41 19 -1770 l0 -1760 -1440 0 -1440 0 0 1760 c0 1665 1 1760
18 1769 24 14 2816 15 2843 1z m-3011 -2220 l0 -1310 -195 0 -195 0 0 1310 0
1310 195 0 195 0 0 -1310z m3570 0 l0 -1310 -195 0 -195 0 0 1310 0 1310 195
0 195 0 0 -1310z m-1610 -1920 c5 -151 6 -158 37 -222 19 -37 52 -83 78 -107
l45 -41 -527 0 -526 0 47 50 c26 28 59 76 74 108 25 52 27 69 30 202 2 80 5
151 7 158 4 10 82 12 367 10 l363 -3 5 -155z"/>
<path d="M2263 4540 c-45 -18 -55 -72 -22 -114 l20 -26 659 0 659 0 21 27 c16
20 20 36 16 58 -13 63 26 60 -684 62 -361 1 -657 -2 -669 -7z"/>
<path d="M1945 4510 c-11 -4 -74 -63 -140 -129 l-119 -120 -63 61 c-58 55 -67
60 -96 54 -18 -3 -40 -16 -49 -27 -35 -42 -24 -66 79 -170 137 -140 123 -143
330 64 138 138 163 167 163 192 -1 34 -15 56 -47 73 -25 14 -31 14 -58 2z"/>
<path d="M2245 4245 c-30 -30 -32 -64 -4 -99 l20 -26 655 0 655 0 24 25 c14
13 25 36 25 50 0 14 -11 37 -25 50 l-24 25 -651 0 -651 0 -24 -25z"/>
<path d="M2265 3788 c-49 -26 -58 -69 -24 -112 l20 -26 659 0 659 0 20 26 c12
15 21 33 21 40 0 26 -23 62 -47 73 -34 15 -1280 15 -1308 -1z"/>
<path d="M1950 3758 c-14 -5 -79 -63 -145 -129 l-121 -119 -49 51 c-28 28 -61
55 -74 60 -53 21 -111 -32 -97 -87 4 -16 45 -66 95 -116 81 -80 92 -88 127
-88 36 0 47 9 201 163 138 138 163 167 163 192 -1 55 -51 91 -100 73z"/>
<path d="M2245 3495 c-30 -30 -32 -64 -4 -99 l20 -26 659 0 659 0 20 26 c28
35 26 69 -4 99 l-24 25 -651 0 -651 0 -24 -25z"/>
<path d="M2265 3038 c-50 -29 -58 -72 -21 -115 l24 -28 639 -2 c685 -3 673 -4
702 48 19 33 1 81 -35 98 -36 16 -1281 15 -1309 -1z"/>
<path d="M1810 2885 l-126 -125 -49 51 c-28 28 -61 55 -74 60 -58 23 -116 -41
-92 -99 15 -36 158 -178 191 -190 43 -16 77 8 238 170 128 130 152 159 152
184 0 41 -36 74 -80 74 -29 0 -48 -15 -160 -125z"/>
<path d="M2245 2746 c-30 -31 -32 -65 -4 -100 l20 -26 659 0 659 0 21 27 c16
20 20 36 16 58 -13 63 27 60 -692 63 l-654 2 -25 -24z"/>
<path d="M2269 2289 c-58 -21 -59 -112 -3 -138 35 -16 1273 -16 1308 0 36 17
54 65 35 98 -29 52 -19 51 -689 50 -378 0 -635 -4 -651 -10z"/>
<path d="M1811 2135 l-127 -125 -55 56 c-67 67 -107 75 -146 30 -39 -46 -31
-68 59 -162 90 -94 125 -118 162 -108 13 3 96 79 185 168 173 175 181 188 140
240 -15 19 -29 26 -56 26 -33 0 -48 -12 -162 -125z"/>
<path d="M2265 2008 c-49 -26 -58 -69 -24 -112 l20 -26 659 0 659 0 20 26 c12
15 21 33 21 40 0 26 -23 62 -47 73 -34 15 -1280 15 -1308 -1z"/>
</g>
</svg>
